<?xml version="1.0" standalone="no"?>
<!DOCTYPE svg PUBLIC "-//W3C//DTD SVG 20010904//EN"
 "http://www.w3.org/TR/2001/REC-SVG-20010904/DTD/svg10.dtd">
<svg version="1.0" xmlns="http://www.w3.org/2000/svg"
 width="155.000000pt" height="155.000000pt" viewBox="0 0 155.000000 155.000000"
 preserveAspectRatio="xMidYMid meet">
<metadata>
Created by potrace 1.11, written by Peter Selinger 2001-2013
</metadata>
<g transform="translate(0.000000,155.000000) scale(0.100000,-0.100000)"
fill="#000000" stroke="none">
<path d="M1029 1334 c-232 -50 -449 -216 -541 -414 -14 -30 -29 -68 -32 -85
-4 -16 -9 -41 -12 -55 -10 -46 -11 -167 -3 -226 8 -49 47 -188 65 -229 2 -6
-25 -33 -62 -59 -53 -40 -63 -51 -50 -58 20 -11 31 -5 96 54 28 27 54 48 58
49 78 7 168 31 263 69 232 93 352 220 396 415 13 61 3 168 -33 332 -14 65 -25
142 -25 171 0 50 -1 52 -27 51 -15 0 -57 -7 -93 -15z"/>
</g>
</svg>
